<?xml version="1.0" standalone="no"?>
<svg xmlns="http://www.w3.org/2000/svg" viewBox="0 0 88 73" width="88" height="73"><g fill="#1c2149" color="#1c2149" transform="translate(21.68 0) scale(0.9166667) "><svg width="48.0" height="48.0" x="0.0" y="0.0" viewBox="0 0 48 48"><path fill="currentColor" fill-rule="evenodd" d="M21.088 35.003c-.108 0-.27 0-.432-.054-1.294-.27-1.294-1.403-1.348-2.212-.054-.862-.108-1.186-.54-1.887-.215-.324.054-.647.378-.647.054 0 .108 0 .216.054 1.402.7 3.344 1.887 3.29 3.182 0 .054-.216 1.564-1.564 1.564m-2.643-14.994c-.054.162-.162.27-.378.378a1.787 1.787 0 0 1-1.294 0c-.593-.27-1.133-.701-1.564-1.079-.701-.593-1.348-1.132-2.157-.97-.54.053-.971.377-1.349.97-.161.27-.27.594-.161.917.215.755 1.024 1.187 2.319 1.888 2.21 1.186 4.045 2.265 4.045 3.883v.431c0 .108-.054.162-.054.27 0 .054-.054.108-.054.162 0 .054-.054.108-.054.162-.054.107-.108.161-.216.27l-.162.161c-.431.324-1.024.485-1.564.485-.755 0-1.726-.323-1.887-1.294-.27-1.402-2.535-3.074-4.53-3.236-.972-.108-1.834.162-2.428.755l-.215.27c-.054.054-.108.162-.162.216-.054.107-.108.161-.162.27 0 .053-.054.053-.054.107-.054.054-.054.108-.108.216-.054 0-.054.054-.054.108-.054.054-.054.162-.054.215-.27 1.187 1.24 2.104 3.236 3.344 3.29 1.996 5.879 3.83 4.908 6.095-.216.485-.647.97-1.186 1.294a3.536 3.536 0 0 1-1.78.485c-1.24 0-2.265-.755-2.859-2.103-.593-1.348-1.294-2.05-2.103-2.05-.593 0-1.133.324-1.51.971-.162.378-.324.81-.324 1.295-1.833-3.236-2.912-7.011-2.912-10.949C1.618 11.596 11.649 1.564 24 1.564c1.672 0 3.344.162 4.962.54.593.162.809.54.917.863.161.539 0 1.186-.432 1.564-.377.377-.97.431-1.672.215-1.456-.431-2.912-.215-3.775.648-.593.593-.809 1.402-.54 2.157.216.647.918 1.726 3.29 2.157 1.834.324 3.183.216 4.854.108a54.109 54.109 0 0 1 3.29-.108c3.128 0 4.854 1.564 5.394 2.859.377.917.27 1.78-.324 2.373-1.186 1.186-4.207-.216-5.609-1.025-.162-.108-.27-.162-.431-.27-.378-.215-.863-.108-1.08.27-.215.378-.107.863.217 1.079.054.054.215.161.431.27 1.834 1.186 2.859 2.804 2.859 4.476 0 1.402-.755 2.642-2.05 3.451-1.025.594-1.941.648-2.643.054-.7-.593-.97-1.672-.593-2.696.378-1.133.216-2.212-.485-3.02-1.133-1.295-3.506-1.78-6.04-1.295-.162.054-.324.054-.432.108-.917.27-2.697.97-4.045 2.157-.485-1.618-2.157-2.642-3.506-3.397-.809-.486-1.887-1.133-1.887-1.51 0-.486.593-1.241 1.24-1.403.593-.162 1.133.216 1.618 1.025.755 1.348 2.157 2.265 3.398 2.157 1.025-.054 1.887-.647 2.373-1.726.377-.809.377-1.833.054-2.696-.27-.701-.917-1.618-2.427-2.212a.797.797 0 0 0-1.025.432.797.797 0 0 0 .432 1.025c.809.323 1.294.755 1.51 1.294.215.54.108 1.079 0 1.402-.216.54-.54.81-.971.81-.647.053-1.51-.54-1.942-1.349-1.186-2.103-2.804-1.942-3.397-1.78-1.349.324-2.481 1.672-2.481 2.966 0 1.295 1.294 2.05 2.642 2.859 1.996 1.186 3.236 2.05 2.75 3.613M23.947 0c1.834 0 3.614.216 5.34.594 1.078.215 1.833.97 2.103 1.995.27 1.079-.054 2.32-.863 3.128-.486.432-1.564 1.133-3.29.594-1.079-.324-1.834-.054-2.157.27-.108.107-.216.323-.162.539.108.377.701.862 2.05 1.078 1.671.27 2.912.216 4.476.108.97-.054 2.05-.108 3.397-.108 3.938 0 6.149 2.05 6.904 3.83.647 1.51.377 3.074-.647 4.098-1.025 1.025-2.481 1.079-3.884.755.54.917.81 1.888.81 2.913 0 1.995-1.025 3.775-2.859 4.854-1.564.97-3.236.97-4.476-.054-1.24-1.025-1.672-2.859-1.079-4.477.216-.593.108-1.078-.216-1.456-.72-.824-2.424-1.107-4.22-.802l-.256.047h-.054c-.054.054-.162.054-.216.108-1.186.54-2.48 3.236-2.373 6.256 0 1.672.432 5.77 4.369 7.227 1.78.701 3.505 1.025 5.123 1.025 2.75 0 5.07-.971 7.12-2.427 1.132-.755 2.21-1.726 3.235-2.697 2.178-2.333 3.708-4.966 4.014-6.891l.031-.228v-.054c0-.054.054-.108.054-.162 0 0 .03-.03.046-.068l.008-.04.108-.107.023-.023.085-.085s.054-.054.108-.054c.036 0 .072-.024.108-.04l.054-.014h.323c.054 0 .108.054.162.054 0 0 .03.03.068.045l.04.009.216.215s.053.054.053.108c0 .036.024.072.04.108l.014.054v.054c.216 1.348.324 2.157.324 3.667 0 12.868-10.202 23.41-23.07 23.881l-.39.012h-1.834c-1.618-.054-3.236-.27-4.746-.702-.122 0-.243-.03-.364-.068l-.122-.04h-.054c-.054 0-.108-.053-.162-.053C7.281 44.063 0 34.84 0 23.946 0 10.733 10.787-.054 23.946 0zm16.611 18.23c.378 0 .701.108 1.079.323 1.618 1.079 2.373 2.265 2.157 3.506 0 .108-.054.162-.054.216-.323.917-1.132 1.833-2.373 1.833-.27 0-.593-.054-.863-.161a2.387 2.387 0 0 1-1.51-1.618 3.42 3.42 0 0 1-.073-1.096l.02-.145v-.216c-.055 0-.055 0-.055-.054-.27-.539-.215-1.186.108-1.725.378-.54.917-.863 1.564-.863zm0 1.672c-.161 0-.27.161-.215.323.215.378.215.54.16 1.025-.053.431-.106 1.025.54 1.24a.687.687 0 0 0 .324.054c.594 0 .81-.7.81-.647.107-.701-.864-1.456-1.51-1.941 0-.054-.055-.054-.109-.054zM35.542 2.319c.754.108 3.073.378 3.667 2.104 0 .054.054.162.054.215.054.216.161 1.133-.432 1.942-.377.54-1.025.863-1.726.97h-.323c-.7 0-1.348-.269-1.834-.808-.323-.324-.485-.701-.593-.97v-.055c0-.054-.054-.108-.054-.108l-.054-.054c-.593-.431-.862-1.24-.647-1.995.216-.755.917-1.24 1.726-1.24zm-.162 1.564c-.216 0-.324.27-.216.378.378.27.485.431.648.809.161.377.376.863.97.863h.162c.868-.097.83-.84.812-.996l-.003-.029c-.216-.647-1.51-.917-2.373-1.025z"></path></svg></g><path fill="#1c2149" fill-rule="nonzero" d="M13.58 3.50Q13.85 1.66 14.64 0.84Q15.43 0.02 16.73 0.02Q18.02 0.02 18.64 0.78Q19.25 1.54 19.25 2.30L19.25 2.30Q19.25 2.54 19.20 2.78L19.20 2.78Q18.67 5.45 15.67 6.94L15.67 6.94L13.99 18.29L9.96 18.29L7.10 5.64L5.78 15Q5.52 16.78 4.69 17.62Q3.86 18.46 2.76 18.46Q1.66 18.46 0.92 17.81Q0.19 17.16 0.02 15.96L0.02 15.96Q0 15.77 0 15.58L0 15.58Q0 13.20 3.58 11.50L3.58 11.50L4.61 3.77Q5.21 3.50 5.65 3.50Q6.10 3.50 6.41 3.58L6.41 3.58Q5.86 2.71 4.66 2.71Q3.46 2.71 2.54 3.96L2.54 3.96L2.09 1.90Q2.54 1.27 3.68 0.64Q4.82 0 6.20 0Q7.58 0 8.54 0.83Q9.50 1.66 9.94 3.60L9.94 3.60L12.19 13.10L13.58 3.50ZM15.98 4.87L15.98 4.87Q17.47 3.82 17.47 2.90L17.47 2.90Q17.47 2.74 17.35 2.52Q17.23 2.30 16.99 2.30L16.99 2.30Q16.54 2.30 16.37 2.81L16.37 2.81Q16.13 3.50 15.98 4.87ZM3.34 13.49Q1.68 14.42 1.68 15.31Q1.68 16.20 2.33 16.20L2.33 16.20Q2.76 16.20 2.95 15.64Q3.14 15.07 3.31 13.61L3.31 13.61L3.34 13.49ZM28.37 18.41L28.37 18.41Q26.16 18.41 25.44 16.87L25.44 16.87Q24.19 18.43 22.24 18.43Q20.28 18.43 18.95 17.11Q17.62 15.79 17.62 13.63L17.62 13.63Q17.62 10.49 19.46 8.62Q21.31 6.74 24.14 6.74L24.14 6.74Q24.22 6.74 24.29 6.74L24.29 6.74Q25.49 6.74 26.50 7.15L26.50 7.15Q27.14 6.74 28.07 6.74Q28.99 6.74 29.40 6.98L29.40 6.98Q29.18 8.76 28.94 10.48Q28.70 12.19 28.61 12.91L28.61 12.91Q28.39 14.54 28.39 15.26L28.39 15.26Q28.39 16.22 29.16 16.22L29.16 16.22Q29.76 16.22 30.43 15.42Q31.10 14.62 31.61 12.89L31.61 12.89Q32.30 13.51 32.57 14.28L32.57 14.28Q31.87 16.56 30.70 17.48Q29.52 18.41 28.37 18.41ZM24.50 8.62L24.50 8.62Q22.97 8.62 22.07 9.78Q21.17 10.94 21 13.25L21 13.25Q20.98 13.46 20.98 13.66L20.98 13.66Q20.98 14.83 21.54 15.53Q22.10 16.22 22.99 16.22L22.99 16.22Q24.50 16.22 25.27 14.09L25.27 14.09L25.85 8.90Q25.15 8.62 24.50 8.62ZM36.26 1.58L36.26 1.58Q36.26 1.73 35.62 6.74L35.62 6.74L39.14 6.74L39.14 8.59L35.38 8.59L35.30 9.19Q38.11 11.54 38.11 14.33L38.11 14.33Q38.11 16.51 37.00 17.47Q35.88 18.43 34.32 18.43Q32.76 18.43 32.04 17.60Q31.32 16.78 31.32 15.60L31.32 15.60Q31.32 15.34 31.37 15.02L31.37 15.02L32.11 8.64L32.02 8.59L30.07 8.59Q30.05 8.35 30.05 7.81Q30.05 7.27 30.26 6.74L30.26 6.74L32.33 6.74L33.10 0.22Q33.60 0.02 34.44 0.02L34.44 0.02Q36.26 0.02 36.26 1.58ZM36.50 14.30L36.50 14.30Q36.50 12.65 35.06 11.04L35.06 11.04Q34.63 14.62 34.63 15.17L34.63 15.17Q34.63 16.25 35.33 16.25L35.33 16.25Q35.83 16.25 36.17 15.78Q36.50 15.31 36.50 14.30ZM49.80 6.98L49.80 6.98Q48.82 14.76 48.82 15.26L48.82 15.26Q48.82 16.22 49.51 16.22L49.51 16.22Q50.14 16.22 50.87 15.37Q51.60 14.52 52.03 12.82L52.03 12.82Q52.82 13.68 52.99 14.16L52.99 14.16Q52.44 16.49 51.24 17.45Q50.04 18.41 48.77 18.41L48.77 18.41Q46.68 18.41 45.96 16.80L45.96 16.80Q44.71 18.41 42.62 18.41L42.62 18.41Q40.90 18.41 39.96 17.54Q39.02 16.68 39.02 15.29L39.02 15.29Q39.02 14.95 39.14 14.11L39.14 14.11Q39.70 9.65 39.98 7.01L39.98 7.01Q40.73 6.74 41.35 6.74Q41.98 6.74 42.29 6.79Q42.60 6.84 42.89 7.15Q43.18 7.46 43.18 8.04L43.18 8.04L42.38 14.16Q42.34 14.45 42.34 14.69L42.34 14.69Q42.34 16.10 43.63 16.10L43.63 16.10Q44.83 16.10 45.62 14.93L45.62 14.93Q45.62 14.66 45.67 14.09L45.67 14.09L46.46 7.70Q46.63 7.30 47.18 7.02Q47.74 6.74 48.56 6.74Q49.39 6.74 49.80 6.98ZM58.34 9.89L58.34 9.89Q58.34 8.83 57.37 8.83Q56.40 8.83 55.82 10.08L55.82 10.08Q58.42 12.12 58.42 14.66L58.42 14.66Q58.42 16.51 57.38 17.47Q56.35 18.43 54.79 18.43Q53.23 18.43 52.51 17.46Q51.79 16.49 51.79 15L51.79 15Q51.79 14.54 51.82 14.33L51.82 14.33L52.66 7.01Q53.52 6.74 54.41 6.74L54.41 6.74Q55.87 6.74 55.87 7.82L55.87 7.82L55.87 7.87Q56.83 6.74 58.32 6.74L58.32 6.74Q59.40 6.74 60 7.24Q60.60 7.73 60.60 8.54Q60.60 9.36 59.99 9.88Q59.38 10.39 58.39 10.39L58.39 10.39Q58.34 10.39 58.30 10.39L58.30 10.39Q58.34 10.13 58.34 9.89ZM56.86 14.54Q56.86 13.15 55.42 11.76L55.42 11.76Q54.98 15.22 54.98 15.24L54.98 15.24Q54.98 16.25 55.80 16.25L55.80 16.25Q56.86 16.25 56.86 14.54L56.86 14.54ZM62.98 0.61Q63.53 0.05 64.32 0.05Q65.11 0.05 65.68 0.61Q66.24 1.18 66.24 1.97Q66.24 2.76 65.68 3.31Q65.11 3.86 64.32 3.86Q63.53 3.86 62.98 3.31Q62.42 2.76 62.42 1.97Q62.42 1.18 62.98 0.61ZM61.99 7.66Q62.23 7.22 62.90 7.00Q63.58 6.77 64.24 6.77Q64.90 6.77 65.40 6.94L65.40 6.94Q64.46 14.16 64.46 14.23L64.46 14.23Q64.34 14.71 64.34 15.04Q64.34 15.36 64.39 15.60L64.39 15.60Q64.49 16.22 65.27 16.22Q66.05 16.22 66.71 15.20Q67.37 14.18 67.70 12.89L67.70 12.89Q67.87 12.98 68.23 13.46Q68.59 13.94 68.66 14.18L68.66 14.18Q68.18 16.10 67.03 17.28L67.03 17.28Q65.88 18.46 64.27 18.46Q62.66 18.46 61.88 17.66Q61.10 16.87 61.10 15.62L61.10 15.62Q61.10 15.36 61.13 15.07L61.13 15.07L61.99 7.66ZM76.70 10.94L76.70 10.94Q78.60 12.34 78.60 14.23Q78.60 16.13 77.11 17.28Q75.62 18.43 73.37 18.43L73.37 18.43Q71.90 18.43 70.93 17.70Q69.96 16.97 69.96 15.89Q69.96 14.81 70.68 14.17Q71.40 13.54 72.48 13.39L72.48 13.39Q71.98 14.11 71.98 14.77Q71.98 15.43 72.43 15.84L72.43 15.84Q72.89 16.25 73.58 16.25Q74.28 16.25 74.74 15.73Q75.19 15.22 75.19 14.54L75.19 14.54Q75.19 13.44 74.16 12.58L74.16 12.58Q73.54 12.07 72.82 11.63Q72.10 11.18 72.05 11.16L72.05 11.16Q71.95 11.09 71.86 11.04L71.86 11.04Q71.42 11.54 70.61 12.42Q69.79 13.30 69.31 13.82L69.31 13.82Q67.97 15.29 67.80 16.27L67.80 16.27Q67.75 16.46 67.75 17.00Q67.75 17.54 68.08 18.12Q68.40 18.70 68.86 18.98Q69.31 19.27 69.76 19.45Q70.20 19.63 70.52 19.70Q70.85 19.78 70.85 19.80L70.85 19.80Q70.85 19.97 70.32 20.18L70.32 20.18Q69.34 20.54 68.27 20.54Q67.20 20.54 66.19 19.78L66.19 19.78Q64.82 18.72 64.82 16.97L64.82 16.97Q64.82 15.89 65.38 14.83L65.38 14.83Q66.36 12.96 69.98 9.70L69.98 9.70Q69.10 8.81 69.10 7.80Q69.10 6.79 69.85 6.10Q70.61 5.40 71.64 5.40L71.64 5.40Q72.58 5.40 73.27 6.14L73.27 6.14Q73.73 6.65 73.73 7.42Q73.73 8.18 73.22 9.14L73.22 9.14Q75.79 10.30 76.70 10.94ZM71.50 8.23L71.50 8.23Q72.07 7.63 72.07 7.37L72.07 7.37Q72.07 6.77 71.54 6.72L71.54 6.72Q70.94 6.72 70.94 7.39L70.94 7.39Q70.94 7.80 71.50 8.23ZM84.48 1.58L84.48 1.58Q84.48 1.73 83.83 6.74L83.83 6.74L87.36 6.74L87.36 8.59L83.59 8.59L83.52 9.19Q86.33 11.54 86.33 14.33L86.33 14.33Q86.33 16.51 85.21 17.47Q84.10 18.43 82.54 18.43Q80.98 18.43 80.26 17.60Q79.54 16.78 79.54 15.60L79.54 15.60Q79.54 15.34 79.58 15.02L79.58 15.02L80.33 8.64L80.23 8.59L78.29 8.59Q78.26 8.35 78.26 7.81Q78.26 7.27 78.48 6.74L78.48 6.74L80.54 6.74L81.31 0.22Q81.82 0.02 82.66 0.02L82.66 0.02Q84.48 0.02 84.48 1.58ZM84.72 14.30L84.72 14.30Q84.72 12.65 83.28 11.04L83.28 11.04Q82.85 14.62 82.85 15.17L82.85 15.17Q82.85 16.25 83.54 16.25L83.54 16.25Q84.05 16.25 84.38 15.78Q84.72 15.31 84.72 14.30Z" transform="translate(0, 52)"></path></svg>