<?xml version="1.0" encoding="utf-8"?>
<!-- Generator: Adobe Illustrator 26.4.1, SVG Export Plug-In . SVG Version: 6.00 Build 0)  -->
<svg version="1.1" id="Isolation_Mode" xmlns="http://www.w3.org/2000/svg" xmlns:xlink="http://www.w3.org/1999/xlink" x="0px"
	 y="0px" viewBox="0 0 512 512" style="enable-background:new 0 0 512 512;" xml:space="preserve">
<style type="text/css">
	.st0{fill:#FFFFFF;}
</style>
<path class="st0" d="M37.8,132.6C15,139-0.5,160,0,183.7c0.5,13.8,6.4,27,16.4,36.5L85.3,289v137.6h137.6l69.7,69.7
	c9.6,9.7,22.7,15.2,36.4,15.2c4.4,0,8.9-0.6,13.2-1.7c17.9-4.5,31.9-18.3,36.8-36L512-0.3L37.8,132.6z M75.4,188.9L357.2,110
	L149.3,317.9V263L75.4,188.9z M322.8,436.4l-73.8-73.7h-54.9l207.7-207.8L322.8,436.4z"/>
</svg>
