<?xml version="1.0" encoding="utf-8"?>
<!-- Generator: Adobe Illustrator 26.4.1, SVG Export Plug-In . SVG Version: 6.00 Build 0)  -->
<svg version="1.1" id="Capa_1" xmlns="http://www.w3.org/2000/svg" xmlns:xlink="http://www.w3.org/1999/xlink" x="0px" y="0px"
	 viewBox="0 0 800 800" style="enable-background:new 0 0 800 800;" xml:space="preserve">
<style type="text/css">
	.st0{fill:#FFFFFF;}
	.st1{fill:#37D05D;}
</style>
<rect x="109" y="173.9" class="st0" width="557" height="437"/>
<path class="st1" d="M400,0C179.4,0,0,179.4,0,400s179.4,400,400,400s400-179.4,400-400S620.6,0,400,0z M629.7,332.4L378.4,583.7
	c-10.7,10.7-24.9,16.6-40,16.6s-29.3-5.9-40-16.6l-128.1-128c-10.7-10.7-16.6-24.9-16.6-40s5.9-29.3,16.6-40
	c10.7-10.7,24.9-16.6,40-16.6s29.3,5.9,40,16.6l88.1,88.1l211.3-211.3c10.7-10.7,24.9-16.6,40-16.6s29.3,5.9,40,16.6
	C651.7,274.5,651.7,310.4,629.7,332.4z"/>
</svg>
